<svg width="880" height="104" viewBox="0 0 880 104" fill="none" xmlns="http://www.w3.org/2000/svg">
<g filter="url(#filter0_d_2_4)">
<path d="M75.2965 71.064H25.3765L14.6245 95H4.76851L45.7285 5.39999H55.0725L96.0325 95H86.0485L75.2965 71.064ZM71.8405 63.384L50.3365 15.256L28.8325 63.384H71.8405ZM199.303 27.16C207.751 27.16 214.364 29.592 219.143 34.456C224.007 39.32 226.439 46.488 226.439 55.96V95H217.351V56.856C217.351 49.8587 215.644 44.5253 212.231 40.856C208.903 37.1867 204.167 35.352 198.023 35.352C191.025 35.352 185.521 37.528 181.511 41.88C177.5 46.1467 175.495 52.0773 175.495 59.672V95H166.407V56.856C166.407 49.8587 164.7 44.5253 161.287 40.856C157.959 37.1867 153.18 35.352 146.951 35.352C140.039 35.352 134.535 37.528 130.439 41.88C126.428 46.1467 124.423 52.0773 124.423 59.672V95H115.335V27.672H124.039V39.96C126.428 35.864 129.756 32.7067 134.023 30.488C138.289 28.2693 143.196 27.16 148.743 27.16C154.375 27.16 159.239 28.3547 163.335 30.744C167.516 33.1333 170.631 36.6747 172.679 41.368C175.153 36.9307 178.695 33.4747 183.303 31C187.996 28.44 193.329 27.16 199.303 27.16ZM318.157 27.672V95H309.452V82.712C307.063 86.808 303.778 90.008 299.597 92.312C295.415 94.5307 290.637 95.64 285.261 95.64C276.471 95.64 269.517 93.208 264.397 88.344C259.362 83.3947 256.845 76.184 256.845 66.712V27.672H265.933V65.816C265.933 72.8987 267.682 78.2747 271.181 81.944C274.679 85.6133 279.671 87.448 286.157 87.448C293.239 87.448 298.829 85.3147 302.925 81.048C307.021 76.696 309.069 70.68 309.069 63V27.672H318.157ZM408.634 64.152H352.314C352.826 71.1493 355.514 76.824 360.378 81.176C365.242 85.4427 371.386 87.576 378.81 87.576C382.991 87.576 386.831 86.8507 390.33 85.4C393.828 83.864 396.858 81.6453 399.418 78.744L404.538 84.632C401.551 88.216 397.796 90.9467 393.274 92.824C388.836 94.7013 383.93 95.64 378.554 95.64C371.642 95.64 365.498 94.1893 360.122 91.288C354.831 88.3013 350.692 84.2053 347.706 79C344.719 73.7947 343.226 67.9067 343.226 61.336C343.226 54.7653 344.634 48.8773 347.45 43.672C350.351 38.4667 354.276 34.4133 359.226 31.512C364.26 28.6107 369.892 27.16 376.122 27.16C382.351 27.16 387.94 28.6107 392.89 31.512C397.839 34.4133 401.722 38.4667 404.538 43.672C407.354 48.792 408.762 54.68 408.762 61.336L408.634 64.152ZM376.122 34.968C369.636 34.968 364.175 37.0587 359.738 41.24C355.386 45.336 352.911 50.712 352.314 57.368H400.058C399.46 50.712 396.943 45.336 392.506 41.24C388.154 37.0587 382.692 34.968 376.122 34.968ZM468.348 27.16C474.662 27.16 480.38 28.6107 485.5 31.512C490.62 34.328 494.63 38.3387 497.532 43.544C500.433 48.7493 501.884 54.68 501.884 61.336C501.884 67.992 500.433 73.9227 497.532 79.128C494.63 84.3333 490.62 88.3867 485.5 91.288C480.38 94.1893 474.662 95.64 468.348 95.64C462.716 95.64 457.638 94.4453 453.116 92.056C448.678 89.6667 445.094 86.2107 442.364 81.688V95H433.66V0.0239944H442.748V40.472C445.564 36.12 449.148 32.8347 453.5 30.616C457.937 28.312 462.886 27.16 468.348 27.16ZM467.708 87.576C472.401 87.576 476.668 86.5093 480.508 84.376C484.348 82.1573 487.334 79.0427 489.468 75.032C491.686 71.0213 492.796 66.456 492.796 61.336C492.796 56.216 491.686 51.6507 489.468 47.64C487.334 43.6293 484.348 40.5573 480.508 38.424C476.668 36.2053 472.401 35.096 467.708 35.096C462.929 35.096 458.62 36.2053 454.78 38.424C451.025 40.5573 448.038 43.6293 445.82 47.64C443.686 51.6507 442.62 56.216 442.62 61.336C442.62 66.456 443.686 71.0213 445.82 75.032C448.038 79.0427 451.025 82.1573 454.78 84.376C458.62 86.5093 462.929 87.576 467.708 87.576ZM526.81 0.0239944H535.898V95H526.81V0.0239944ZM591.137 27.16C599.926 27.16 606.667 29.3787 611.361 33.816C616.054 38.168 618.401 44.6533 618.401 53.272V95H609.697V84.504C607.649 88.0027 604.619 90.7333 600.609 92.696C596.683 94.6587 591.99 95.64 586.529 95.64C579.019 95.64 573.046 93.848 568.609 90.264C564.171 86.68 561.953 81.944 561.953 76.056C561.953 70.3387 564.001 65.7307 568.097 62.232C572.278 58.7333 578.891 56.984 587.937 56.984H609.313V52.888C609.313 47.0853 607.691 42.6907 604.449 39.704C601.206 36.632 596.47 35.096 590.241 35.096C585.974 35.096 581.878 35.8213 577.953 37.272C574.027 38.6373 570.657 40.5573 567.841 43.032L563.745 36.248C567.158 33.3467 571.254 31.128 576.033 29.592C580.811 27.9707 585.846 27.16 591.137 27.16ZM587.937 88.472C593.057 88.472 597.451 87.32 601.121 85.016C604.79 82.6267 607.521 79.2133 609.313 74.776V63.768H588.193C576.673 63.768 570.913 67.7787 570.913 75.8C570.913 79.7253 572.406 82.84 575.393 85.144C578.379 87.3627 582.561 88.472 587.937 88.472ZM711.175 0.0239944V95H702.471V81.688C699.74 86.2107 696.113 89.6667 691.591 92.056C687.153 94.4453 682.119 95.64 676.487 95.64C670.172 95.64 664.455 94.1893 659.335 91.288C654.215 88.3867 650.204 84.3333 647.303 79.128C644.401 73.9227 642.951 67.992 642.951 61.336C642.951 54.68 644.401 48.7493 647.303 43.544C650.204 38.3387 654.215 34.328 659.335 31.512C664.455 28.6107 670.172 27.16 676.487 27.16C681.948 27.16 686.855 28.312 691.207 30.616C695.644 32.8347 699.271 36.12 702.087 40.472V0.0239944H711.175ZM677.255 87.576C681.948 87.576 686.172 86.5093 689.927 84.376C693.767 82.1573 696.753 79.0427 698.887 75.032C701.105 71.0213 702.215 66.456 702.215 61.336C702.215 56.216 701.105 51.6507 698.887 47.64C696.753 43.6293 693.767 40.5573 689.927 38.424C686.172 36.2053 681.948 35.096 677.255 35.096C672.476 35.096 668.167 36.2053 664.327 38.424C660.572 40.5573 657.585 43.6293 655.367 47.64C653.233 51.6507 652.167 56.216 652.167 61.336C652.167 66.456 653.233 71.0213 655.367 75.032C657.585 79.0427 660.572 82.1573 664.327 84.376C668.167 86.5093 672.476 87.576 677.255 87.576ZM770.405 95.64C763.919 95.64 758.074 94.1893 752.869 91.288C747.663 88.3013 743.567 84.2053 740.581 79C737.594 73.7947 736.101 67.9067 736.101 61.336C736.101 54.7653 737.594 48.8773 740.581 43.672C743.567 38.4667 747.663 34.4133 752.869 31.512C758.074 28.6107 763.919 27.16 770.405 27.16C776.89 27.16 782.735 28.6107 787.941 31.512C793.146 34.4133 797.199 38.4667 800.101 43.672C803.087 48.8773 804.581 54.7653 804.581 61.336C804.581 67.9067 803.087 73.7947 800.101 79C797.199 84.2053 793.146 88.3013 787.941 91.288C782.735 94.1893 776.89 95.64 770.405 95.64ZM770.405 87.576C775.183 87.576 779.45 86.5093 783.205 84.376C787.045 82.1573 790.031 79.0427 792.165 75.032C794.298 71.0213 795.365 66.456 795.365 61.336C795.365 56.216 794.298 51.6507 792.165 47.64C790.031 43.6293 787.045 40.5573 783.205 38.424C779.45 36.2053 775.183 35.096 770.405 35.096C765.626 35.096 761.317 36.2053 757.477 38.424C753.722 40.5573 750.735 43.6293 748.517 47.64C746.383 51.6507 745.317 56.216 745.317 61.336C745.317 66.456 746.383 71.0213 748.517 75.032C750.735 79.0427 753.722 82.1573 757.477 84.376C761.317 86.5093 765.626 87.576 770.405 87.576ZM847.582 95.64C842.121 95.64 836.873 94.872 831.838 93.336C826.889 91.7147 823.006 89.7093 820.19 87.32L824.286 80.152C827.102 82.3707 830.644 84.2053 834.91 85.656C839.177 87.0213 843.614 87.704 848.222 87.704C854.366 87.704 858.889 86.7653 861.79 84.888C864.777 82.9253 866.27 80.1947 866.27 76.696C866.27 74.2213 865.46 72.3013 863.838 70.936C862.217 69.4853 860.169 68.4187 857.694 67.736C855.22 66.968 851.934 66.2427 847.838 65.56C842.377 64.536 837.982 63.512 834.654 62.488C831.326 61.3787 828.468 59.544 826.078 56.984C823.774 54.424 822.622 50.8827 822.622 46.36C822.622 40.728 824.969 36.12 829.662 32.536C834.356 28.952 840.884 27.16 849.246 27.16C853.598 27.16 857.95 27.7573 862.302 28.952C866.654 30.0613 870.238 31.5547 873.054 33.432L869.086 40.728C863.54 36.888 856.926 34.968 849.246 34.968C843.444 34.968 839.049 35.992 836.062 38.04C833.161 40.088 831.71 42.776 831.71 46.104C831.71 48.664 832.521 50.712 834.142 52.248C835.849 53.784 837.94 54.936 840.414 55.704C842.889 56.3867 846.302 57.112 850.654 57.88C856.03 58.904 860.34 59.928 863.582 60.952C866.825 61.976 869.598 63.7253 871.902 66.2C874.206 68.6747 875.358 72.088 875.358 76.44C875.358 82.328 872.884 87.0213 867.934 90.52C863.07 93.9333 856.286 95.64 847.582 95.64Z" fill="white"/>
</g>
<defs>
<filter id="filter0_d_2_4" x="0.768494" y="0.0239944" width="878.59" height="103.616" filterUnits="userSpaceOnUse" color-interpolation-filters="sRGB">
<feFlood flood-opacity="0" result="BackgroundImageFix"/>
<feColorMatrix in="SourceAlpha" type="matrix" values="0 0 0 0 0 0 0 0 0 0 0 0 0 0 0 0 0 0 127 0" result="hardAlpha"/>
<feOffset dy="4"/>
<feGaussianBlur stdDeviation="2"/>
<feComposite in2="hardAlpha" operator="out"/>
<feColorMatrix type="matrix" values="0 0 0 0 0 0 0 0 0 0 0 0 0 0 0 0 0 0 0.25 0"/>
<feBlend mode="normal" in2="BackgroundImageFix" result="effect1_dropShadow_2_4"/>
<feBlend mode="normal" in="SourceGraphic" in2="effect1_dropShadow_2_4" result="shape"/>
</filter>
</defs>
</svg>
